STARTFONT 2.1
FONT -ibm-courier-medium-o-normal--14-140-75-75-m-77-iso8859-2
SIZE 14 75 75
FONTBOUNDINGBOX 14 16 -1 -2
COMMENT $Header: courO14.bdf,v 1.1 96/01/22 23:45:35 peterlin Exp $
COMMENT 
COMMENT Copyright International Business Machines,Corp. 1991
COMMENT IBM Courier is a Trademark of the IBM Corporation.
COMMENT 
COMMENT Automatic rendering from Adobe Type 1 outline:
COMMENT Primoz Peterlin <primoz.peterlin@biofiz.mf.uni-lj.si>
COMMENT couri.pfa rendered at 15.000000 points
COMMENT Checksum eb69a063
STARTPROPERTIES 3
FONT_ASCENT 13
FONT_DESCENT 2
DEFAULT_CHAR 32
ENDPROPERTIES
CHARS 191
STARTCHAR space
ENCODING 32
SWIDTH 572 0
DWIDTH 9 0
BBX 0 0 0 1
BITMAP
ENDCHAR
STARTCHAR exclam
ENCODING 33
SWIDTH 572 0
DWIDTH 9 0
BBX 3 9 4 1
BITMAP
20
60
40
40
40
40
00
c0
c0
ENDCHAR
STARTCHAR quotedbl
ENCODING 34
SWIDTH 572 0
DWIDTH 9 0
BBX 5 4 4 6
BITMAP
48
48
d8
90
ENDCHAR
STARTCHAR numbersign
ENCODING 35
SWIDTH 572 0
DWIDTH 9 0
BBX 8 12 2 0
BITMAP
12
12
12
12
7f
24
24
fe
48
48
48
48
ENDCHAR
STARTCHAR dollar
ENCODING 36
SWIDTH 572 0
DWIDTH 9 0
BBX 8 12 2 -1
BITMAP
08
1e
2a
48
68
18
16
92
94
f8
20
20
ENDCHAR
STARTCHAR percent
ENCODING 37
SWIDTH 572 0
DWIDTH 9 0
BBX 8 10 2 1
BITMAP
70
88
88
92
fe
f8
ce
32
22
1c
ENDCHAR
STARTCHAR ampersand
ENCODING 38
SWIDTH 572 0
DWIDTH 9 0
BBX 7 9 2 1
BITMAP
1c
22
20
20
32
54
94
88
f4
ENDCHAR
STARTCHAR quoteright
ENCODING 39
SWIDTH 572 0
DWIDTH 9 0
BBX 4 4 4 6
BITMAP
30
20
40
c0
ENDCHAR
STARTCHAR parenleft
ENCODING 40
SWIDTH 572 0
DWIDTH 9 0
BBX 5 12 5 -1
BITMAP
10
10
20
40
40
80
80
80
80
80
c0
40
ENDCHAR
STARTCHAR parenright
ENCODING 41
SWIDTH 572 0
DWIDTH 9 0
BBX 4 12 2 -1
BITMAP
10
10
10
10
10
10
10
20
20
40
40
80
ENDCHAR
STARTCHAR asterisk
ENCODING 42
SWIDTH 572 0
DWIDTH 9 0
BBX 6 6 3 4
BITMAP
10
10
fc
30
50
50
ENDCHAR
STARTCHAR plus
ENCODING 43
SWIDTH 572 0
DWIDTH 9 0
BBX 8 8 2 2
BITMAP
10
10
10
10
ff
10
10
10
ENDCHAR
STARTCHAR comma
ENCODING 44
SWIDTH 572 0
DWIDTH 9 0
BBX 4 4 2 -1
BITMAP
30
60
40
c0
ENDCHAR
STARTCHAR minus
ENCODING 45
SWIDTH 572 0
DWIDTH 9 0
BBX 7 1 2 5
BITMAP
fe
ENDCHAR
STARTCHAR period
ENCODING 46
SWIDTH 572 0
DWIDTH 9 0
BBX 2 2 4 1
BITMAP
c0
c0
ENDCHAR
STARTCHAR slash
ENCODING 47
SWIDTH 572 0
DWIDTH 9 0
BBX 9 13 1 -1
BITMAP
0080
0100
0100
0200
0400
0400
0800
0800
1000
2000
2000
4000
8000
ENDCHAR
STARTCHAR zero
ENCODING 48
SWIDTH 572 0
DWIDTH 9 0
BBX 7 10 2 1
BITMAP
1c
22
42
42
42
82
84
84
c8
70
ENDCHAR
STARTCHAR one
ENCODING 49
SWIDTH 572 0
DWIDTH 9 0
BBX 6 10 2 1
BITMAP
08
38
08
08
08
10
10
10
10
fc
ENDCHAR
STARTCHAR two
ENCODING 50
SWIDTH 572 0
DWIDTH 9 0
BBX 8 10 1 1
BITMAP
0e
31
21
01
02
04
08
10
62
fe
ENDCHAR
STARTCHAR three
ENCODING 51
SWIDTH 572 0
DWIDTH 9 0
BBX 7 10 2 1
BITMAP
1c
22
02
04
18
04
04
04
08
f0
ENDCHAR
STARTCHAR four
ENCODING 52
SWIDTH 572 0
DWIDTH 9 0
BBX 7 10 1 1
BITMAP
06
06
0c
14
24
44
84
fe
08
3c
ENDCHAR
STARTCHAR five
ENCODING 53
SWIDTH 572 0
DWIDTH 9 0
BBX 7 10 2 1
BITMAP
3e
20
20
40
7c
02
02
02
0c
78
ENDCHAR
STARTCHAR six
ENCODING 54
SWIDTH 572 0
DWIDTH 9 0
BBX 8 10 2 1
BITMAP
0f
10
20
40
78
c4
84
84
88
70
ENDCHAR
STARTCHAR seven
ENCODING 55
SWIDTH 572 0
DWIDTH 9 0
BBX 7 10 3 1
BITMAP
fe
82
84
08
08
10
30
20
40
40
ENDCHAR
STARTCHAR eight
ENCODING 56
SWIDTH 572 0
DWIDTH 9 0
BBX 7 10 2 1
BITMAP
1c
22
42
42
64
3c
42
82
84
78
ENDCHAR
STARTCHAR nine
ENCODING 57
SWIDTH 572 0
DWIDTH 9 0
BBX 7 10 2 1
BITMAP
1c
22
42
42
46
3a
04
04
08
f0
ENDCHAR
STARTCHAR colon
ENCODING 58
SWIDTH 572 0
DWIDTH 9 0
BBX 3 6 4 1
BITMAP
60
60
00
00
c0
c0
ENDCHAR
STARTCHAR semicolon
ENCODING 59
SWIDTH 572 0
DWIDTH 9 0
BBX 5 8 2 -1
BITMAP
18
18
00
00
30
20
60
40
ENDCHAR
STARTCHAR less
ENCODING 60
SWIDTH 572 0
DWIDTH 9 0
BBX 8 8 2 2
BITMAP
01
06
18
60
60
18
07
01
ENDCHAR
STARTCHAR equal
ENCODING 61
SWIDTH 572 0
DWIDTH 9 0
BBX 8 4 2 4
BITMAP
ff
00
00
ff
ENDCHAR
STARTCHAR greater
ENCODING 62
SWIDTH 572 0
DWIDTH 9 0
BBX 8 7 2 2
BITMAP
60
18
06
06
38
e0
80
ENDCHAR
STARTCHAR question
ENCODING 63
SWIDTH 572 0
DWIDTH 9 0
BBX 6 9 3 1
BITMAP
78
84
04
08
30
40
40
c0
c0
ENDCHAR
STARTCHAR at
ENCODING 64
SWIDTH 572 0
DWIDTH 9 0
BBX 9 9 1 1
BITMAP
0f00
3180
4e80
5680
9480
ad00
be00
c100
3e00
ENDCHAR
STARTCHAR A
ENCODING 65
SWIDTH 572 0
DWIDTH 9 0
BBX 9 9 0 1
BITMAP
1e00
0600
0a00
0a00
1200
1f00
2100
4100
e380
ENDCHAR
STARTCHAR B
ENCODING 66
SWIDTH 572 0
DWIDTH 9 0
BBX 9 9 1 1
BITMAP
7f00
2080
2080
2100
3e00
2100
2100
4100
fe00
ENDCHAR
STARTCHAR C
ENCODING 67
SWIDTH 572 0
DWIDTH 9 0
BBX 9 9 2 1
BITMAP
1e80
2100
4100
8000
8000
8000
8000
c300
7c00
ENDCHAR
STARTCHAR D
ENCODING 68
SWIDTH 572 0
DWIDTH 9 0
BBX 9 9 1 1
BITMAP
7f00
2180
2080
2080
2080
2080
4100
4200
fc00
ENDCHAR
STARTCHAR E
ENCODING 69
SWIDTH 572 0
DWIDTH 9 0
BBX 10 9 1 1
BITMAP
3fc0
1040
10c0
1200
3e00
2200
2080
2180
ff00
ENDCHAR
STARTCHAR F
ENCODING 70
SWIDTH 572 0
DWIDTH 9 0
BBX 9 9 1 1
BITMAP
3f80
1080
1080
2200
3c00
2400
2000
2000
f000
ENDCHAR
STARTCHAR G
ENCODING 71
SWIDTH 572 0
DWIDTH 9 0
BBX 10 9 1 1
BITMAP
0f40
3080
4080
4000
8000
8780
8100
c100
3e00
ENDCHAR
STARTCHAR H
ENCODING 72
SWIDTH 572 0
DWIDTH 9 0
BBX 10 9 1 1
BITMAP
39c0
1080
1080
2080
3f00
2100
2100
4100
e700
ENDCHAR
STARTCHAR I
ENCODING 73
SWIDTH 572 0
DWIDTH 9 0
BBX 8 9 2 1
BITMAP
3f
08
08
08
08
10
10
10
fc
ENDCHAR
STARTCHAR J
ENCODING 74
SWIDTH 572 0
DWIDTH 9 0
BBX 10 9 1 1
BITMAP
0fc0
0100
0100
0200
0200
8200
8200
8400
7800
ENDCHAR
STARTCHAR K
ENCODING 75
SWIDTH 572 0
DWIDTH 9 0
BBX 10 9 1 1
BITMAP
39c0
1100
1200
1c00
3800
2400
2600
2200
f380
ENDCHAR
STARTCHAR L
ENCODING 76
SWIDTH 572 0
DWIDTH 9 0
BBX 9 9 1 1
BITMAP
3c00
1000
1000
1000
1000
2080
2080
2100
ff00
ENDCHAR
STARTCHAR M
ENCODING 77
SWIDTH 572 0
DWIDTH 9 0
BBX 11 9 0 1
BITMAP
30e0
18c0
1940
2940
2a80
2a80
2480
4080
e380
ENDCHAR
STARTCHAR N
ENCODING 78
SWIDTH 572 0
DWIDTH 9 0
BBX 11 9 0 1
BITMAP
39e0
1840
1440
2480
2480
2480
2280
2300
f300
ENDCHAR
STARTCHAR O
ENCODING 79
SWIDTH 572 0
DWIDTH 9 0
BBX 9 9 1 1
BITMAP
0f00
3180
4080
4080
8080
8080
8100
4200
3c00
ENDCHAR
STARTCHAR P
ENCODING 80
SWIDTH 572 0
DWIDTH 9 0
BBX 9 9 1 1
BITMAP
3f00
1080
1080
1080
1100
3e00
2000
2000
7800
ENDCHAR
STARTCHAR Q
ENCODING 81
SWIDTH 572 0
DWIDTH 9 0
BBX 9 11 1 -1
BITMAP
0f00
3180
4080
4080
8080
8080
8100
4200
3c00
2000
5e00
ENDCHAR
STARTCHAR R
ENCODING 82
SWIDTH 572 0
DWIDTH 9 0
BBX 8 9 1 1
BITMAP
7f
21
21
23
3c
24
24
42
e3
ENDCHAR
STARTCHAR S
ENCODING 83
SWIDTH 572 0
DWIDTH 9 0
BBX 9 9 1 1
BITMAP
1f80
2180
2100
2000
1e00
0100
4100
c300
fc00
ENDCHAR
STARTCHAR T
ENCODING 84
SWIDTH 572 0
DWIDTH 9 0
BBX 9 9 2 1
BITMAP
7f80
4880
8880
0800
1000
1000
1000
1000
7c00
ENDCHAR
STARTCHAR U
ENCODING 85
SWIDTH 572 0
DWIDTH 9 0
BBX 9 9 2 1
BITMAP
f380
4100
4100
4100
8200
8200
8200
8400
7800
ENDCHAR
STARTCHAR V
ENCODING 86
SWIDTH 572 0
DWIDTH 9 0
BBX 10 9 2 1
BITMAP
f3c0
4080
6100
2200
2200
2400
2800
2800
3000
ENDCHAR
STARTCHAR W
ENCODING 87
SWIDTH 572 0
DWIDTH 9 0
BBX 10 9 2 1
BITMAP
e1c0
4080
4880
5900
dd00
a500
a600
c600
8400
ENDCHAR
STARTCHAR X
ENCODING 88
SWIDTH 572 0
DWIDTH 9 0
BBX 10 9 1 1
BITMAP
39c0
1100
0a00
0a00
0400
1c00
2200
4200
e700
ENDCHAR
STARTCHAR Y
ENCODING 89
SWIDTH 572 0
DWIDTH 9 0
BBX 9 9 2 1
BITMAP
e380
4200
2200
2400
2800
1000
1000
2000
f800
ENDCHAR
STARTCHAR Z
ENCODING 90
SWIDTH 572 0
DWIDTH 9 0
BBX 8 9 2 1
BITMAP
3f
42
44
08
10
10
22
42
fe
ENDCHAR
STARTCHAR bracketleft
ENCODING 91
SWIDTH 572 0
DWIDTH 9 0
BBX 5 13 5 -1
BITMAP
38
20
20
20
20
40
40
40
40
40
80
80
e0
ENDCHAR
STARTCHAR backslash
ENCODING 92
SWIDTH 572 0
DWIDTH 9 0
BBX 4 14 4 -1
BITMAP
80
80
40
40
40
40
40
20
20
20
20
10
10
10
ENDCHAR
STARTCHAR bracketright
ENCODING 93
SWIDTH 572 0
DWIDTH 9 0
BBX 5 13 2 -1
BITMAP
38
08
08
08
10
10
10
10
10
10
20
20
e0
ENDCHAR
STARTCHAR asciicircum
ENCODING 94
SWIDTH 572 0
DWIDTH 9 0
BBX 7 7 2 3
BITMAP
10
28
28
48
44
c4
82
ENDCHAR
STARTCHAR underscore
ENCODING 95
SWIDTH 572 0
DWIDTH 9 0
BBX 11 1 -1 -1
BITMAP
ffe0
ENDCHAR
STARTCHAR quoteleft
ENCODING 96
SWIDTH 572 0
DWIDTH 9 0
BBX 4 4 4 6
BITMAP
30
20
40
c0
ENDCHAR
STARTCHAR a
ENCODING 97
SWIDTH 572 0
DWIDTH 9 0
BBX 8 7 1 1
BITMAP
1e
01
3f
42
82
86
7b
ENDCHAR
STARTCHAR b
ENCODING 98
SWIDTH 572 0
DWIDTH 9 0
BBX 10 10 0 1
BITMAP
3000
1000
1000
1700
18c0
3040
2040
20c0
3180
de00
ENDCHAR
STARTCHAR c
ENCODING 99
SWIDTH 572 0
DWIDTH 9 0
BBX 8 7 2 1
BITMAP
3d
42
82
80
80
86
78
ENDCHAR
STARTCHAR d
ENCODING 100
SWIDTH 572 0
DWIDTH 9 0
BBX 9 9 1 1
BITMAP
0080
0080
1d00
6300
4100
8100
8200
c600
3b00
ENDCHAR
STARTCHAR e
ENCODING 101
SWIDTH 572 0
DWIDTH 9 0
BBX 8 7 2 1
BITMAP
3c
43
81
ff
80
83
7c
ENDCHAR
STARTCHAR f
ENCODING 102
SWIDTH 572 0
DWIDTH 9 0
BBX 9 10 1 1
BITMAP
0780
0800
1000
7e00
1000
1000
2000
2000
2000
fc00
ENDCHAR
STARTCHAR g
ENCODING 103
SWIDTH 572 0
DWIDTH 9 0
BBX 9 10 1 -2
BITMAP
1d80
6300
c200
8200
8200
c600
3a00
0200
0400
7800
ENDCHAR
STARTCHAR h
ENCODING 104
SWIDTH 572 0
DWIDTH 9 0
BBX 8 10 1 1
BITMAP
70
10
10
2e
31
21
21
41
42
e7
ENDCHAR
STARTCHAR i
ENCODING 105
SWIDTH 572 0
DWIDTH 9 0
BBX 7 11 1 1
BITMAP
04
04
00
00
38
08
08
08
18
10
fe
ENDCHAR
STARTCHAR j
ENCODING 106
SWIDTH 572 0
DWIDTH 9 0
BBX 9 14 0 -2
BITMAP
0100
0100
0000
0000
3f00
0200
0200
0200
0200
0400
0400
0400
4800
f000
ENDCHAR
STARTCHAR k
ENCODING 107
SWIDTH 572 0
DWIDTH 9 0
BBX 9 10 1 1
BITMAP
3000
1000
1000
1380
2600
2800
3800
2400
4200
c700
ENDCHAR
STARTCHAR l
ENCODING 108
SWIDTH 572 0
DWIDTH 9 0
BBX 7 10 1 1
BITMAP
3c
04
04
08
08
08
08
18
10
fe
ENDCHAR
STARTCHAR m
ENCODING 109
SWIDTH 572 0
DWIDTH 9 0
BBX 10 7 0 1
BITMAP
7dc0
2240
2440
2440
2480
4480
e4c0
ENDCHAR
STARTCHAR n
ENCODING 110
SWIDTH 572 0
DWIDTH 9 0
BBX 8 7 1 1
BITMAP
6e
31
21
21
42
42
e7
ENDCHAR
STARTCHAR o
ENCODING 111
SWIDTH 572 0
DWIDTH 9 0
BBX 9 7 1 1
BITMAP
1f00
6180
4080
8080
8100
c300
7c00
ENDCHAR
STARTCHAR p
ENCODING 112
SWIDTH 572 0
DWIDTH 9 0
BBX 10 10 0 -2
BITMAP
3700
18c0
1040
2040
2080
3180
3e00
2000
4000
f000
ENDCHAR
STARTCHAR q
ENCODING 113
SWIDTH 572 0
DWIDTH 9 0
BBX 10 10 1 -2
BITMAP
1ec0
6300
4100
8100
8300
c600
3a00
0200
0200
1f00
ENDCHAR
STARTCHAR r
ENCODING 114
SWIDTH 572 0
DWIDTH 9 0
BBX 9 7 1 1
BITMAP
7700
1880
1000
1000
1000
2000
fc00
ENDCHAR
STARTCHAR s
ENCODING 115
SWIDTH 572 0
DWIDTH 9 0
BBX 8 7 2 1
BITMAP
3d
42
40
3c
02
86
f8
ENDCHAR
STARTCHAR t
ENCODING 116
SWIDTH 572 0
DWIDTH 9 0
BBX 6 9 3 1
BITMAP
40
40
f8
40
40
80
80
80
78
ENDCHAR
STARTCHAR u
ENCODING 117
SWIDTH 572 0
DWIDTH 9 0
BBX 7 7 2 1
BITMAP
c6
42
42
82
84
8c
76
ENDCHAR
STARTCHAR v
ENCODING 118
SWIDTH 572 0
DWIDTH 9 0
BBX 9 7 2 1
BITMAP
e380
4200
2200
2400
2800
2800
1000
ENDCHAR
STARTCHAR w
ENCODING 119
SWIDTH 572 0
DWIDTH 9 0
BBX 10 7 1 1
BITMAP
e1c0
4880
4880
5d00
5500
6600
4400
ENDCHAR
STARTCHAR x
ENCODING 120
SWIDTH 572 0
DWIDTH 9 0
BBX 10 7 0 1
BITMAP
39c0
1100
0a00
0c00
1200
2300
e380
ENDCHAR
STARTCHAR y
ENCODING 121
SWIDTH 572 0
DWIDTH 9 0
BBX 8 10 2 -2
BITMAP
e7
42
c2
82
84
8c
74
04
08
f0
ENDCHAR
STARTCHAR z
ENCODING 122
SWIDTH 572 0
DWIDTH 9 0
BBX 8 7 2 1
BITMAP
3f
42
04
18
20
42
fe
ENDCHAR
STARTCHAR braceleft
ENCODING 123
SWIDTH 572 0
DWIDTH 9 0
BBX 5 13 5 -1
BITMAP
10
20
40
40
40
40
80
40
40
80
80
80
40
ENDCHAR
STARTCHAR bar
ENCODING 124
SWIDTH 572 0
DWIDTH 9 0
BBX 1 14 5 -2
BITMAP
80
80
80
80
80
80
80
80
80
80
80
80
80
80
ENDCHAR
STARTCHAR braceright
ENCODING 125
SWIDTH 572 0
DWIDTH 9 0
BBX 5 13 2 -1
BITMAP
30
08
08
18
10
10
08
30
20
20
20
60
c0
ENDCHAR
STARTCHAR asciitilde
ENCODING 126
SWIDTH 572 0
DWIDTH 9 0
BBX 7 3 2 4
BITMAP
62
9c
80
ENDCHAR
STARTCHAR space
ENCODING 160
SWIDTH 572 0
DWIDTH 9 0
BBX 0 0 0 1
BITMAP
ENDCHAR
STARTCHAR Aogonek
ENCODING 161
SWIDTH 572 0
DWIDTH 9 0
BBX 10 11 0 -1
BITMAP
0e00
0600
0600
0900
1100
1f00
2080
4080
f3c0
0300
0300
ENDCHAR
STARTCHAR breve
ENCODING 162
SWIDTH 572 0
DWIDTH 9 0
BBX 5 2 4 9
BITMAP
88
70
ENDCHAR
STARTCHAR Lslash
ENCODING 163
SWIDTH 572 0
DWIDTH 9 0
BBX 9 9 1 1
BITMAP
3c00
1000
1200
1c00
7080
6080
2080
2100
ff00
ENDCHAR
STARTCHAR currency
ENCODING 164
SWIDTH 572 0
DWIDTH 9 0
BBX 7 7 2 2
BITMAP
82
7e
42
42
46
7a
82
ENDCHAR
STARTCHAR Lcaron
ENCODING 165
SWIDTH 572 0
DWIDTH 9 0
BBX 10 10 1 1
BITMAP
0080
3f00
1000
1000
1000
1000
2080
2080
2100
ff00
ENDCHAR
STARTCHAR Sacute
ENCODING 166
SWIDTH 572 0
DWIDTH 9 0
BBX 9 12 1 1
BITMAP
0100
0600
0000
1f80
2180
2100
2000
1e00
0100
4100
c300
fc00
ENDCHAR
STARTCHAR section
ENCODING 167
SWIDTH 572 0
DWIDTH 9 0
BBX 8 11 2 -1
BITMAP
1e
21
30
78
4c
42
32
1c
88
98
f0
ENDCHAR
STARTCHAR dieresis
ENCODING 168
SWIDTH 572 0
DWIDTH 9 0
BBX 4 2 5 10
BITMAP
a0
a0
ENDCHAR
STARTCHAR Scaron
ENCODING 169
SWIDTH 572 0
DWIDTH 9 0
BBX 9 12 1 1
BITMAP
0480
0300
0000
1f80
2180
2100
2000
1e00
0100
4100
c300
fc00
ENDCHAR
STARTCHAR Scedilla
ENCODING 170
SWIDTH 572 0
DWIDTH 9 0
BBX 9 11 1 -1
BITMAP
1f80
2180
2100
2000
1e00
0100
4100
4200
fc00
1000
3800
ENDCHAR
STARTCHAR Tcaron
ENCODING 171
SWIDTH 572 0
DWIDTH 9 0
BBX 9 12 2 1
BITMAP
1200
0c00
0000
7f80
4880
8880
0800
1000
1000
1000
1000
7c00
ENDCHAR
STARTCHAR Zacute
ENCODING 172
SWIDTH 572 0
DWIDTH 9 0
BBX 8 12 2 1
BITMAP
04
18
00
3f
42
44
08
10
10
22
42
fe
ENDCHAR
STARTCHAR hyphen
ENCODING 173
SWIDTH 572 0
DWIDTH 9 0
BBX 3 1 4 5
BITMAP
e0
ENDCHAR
STARTCHAR Zcaron
ENCODING 174
SWIDTH 572 0
DWIDTH 9 0
BBX 8 12 2 1
BITMAP
12
0c
00
3f
42
44
08
10
10
22
42
fe
ENDCHAR
STARTCHAR Zdotaccent
ENCODING 175
SWIDTH 572 0
DWIDTH 9 0
BBX 8 13 2 1
BITMAP
04
04
00
00
3f
42
44
08
10
10
22
42
fe
ENDCHAR
STARTCHAR degree
ENCODING 176
SWIDTH 572 0
DWIDTH 9 0
BBX 5 5 3 6
BITMAP
70
c8
88
c8
70
ENDCHAR
STARTCHAR aogonek
ENCODING 177
SWIDTH 572 0
DWIDTH 9 0
BBX 8 9 1 -1
BITMAP
1e
01
3f
42
82
86
7b
06
06
ENDCHAR
STARTCHAR ogonek
ENCODING 178
SWIDTH 572 0
DWIDTH 9 0
BBX 2 2 4 -1
BITMAP
80
80
ENDCHAR
STARTCHAR lslash
ENCODING 179
SWIDTH 572 0
DWIDTH 9 0
BBX 7 10 2 1
BITMAP
38
08
08
0a
0c
70
50
10
10
fc
ENDCHAR
STARTCHAR acute
ENCODING 180
SWIDTH 572 0
DWIDTH 9 0
BBX 4 2 5 9
BITMAP
20
c0
ENDCHAR
STARTCHAR lcaron
ENCODING 181
SWIDTH 572 0
DWIDTH 9 0
BBX 10 10 1 1
BITMAP
3c80
0700
0400
0800
0800
0800
0800
1800
1000
fe00
ENDCHAR
STARTCHAR sacute
ENCODING 182
SWIDTH 572 0
DWIDTH 9 0
BBX 8 10 2 1
BITMAP
04
18
00
3d
42
40
3c
02
86
f8
ENDCHAR
STARTCHAR caron
ENCODING 183
SWIDTH 572 0
DWIDTH 9 0
BBX 4 2 5 9
BITMAP
90
60
ENDCHAR
STARTCHAR cedilla
ENCODING 184
SWIDTH 572 0
DWIDTH 9 0
BBX 3 3 3 -1
BITMAP
20
60
e0
ENDCHAR
STARTCHAR scaron
ENCODING 185
SWIDTH 572 0
DWIDTH 9 0
BBX 8 10 2 1
BITMAP
12
0c
00
3d
42
40
3c
02
86
f8
ENDCHAR
STARTCHAR scedilla
ENCODING 186
SWIDTH 572 0
DWIDTH 9 0
BBX 8 9 2 -1
BITMAP
3d
42
40
3c
02
86
f8
10
70
ENDCHAR
STARTCHAR tcaron
ENCODING 187
SWIDTH 572 0
DWIDTH 9 0
BBX 7 10 3 1
BITMAP
04
58
40
f8
40
40
80
80
80
78
ENDCHAR
STARTCHAR zacute
ENCODING 188
SWIDTH 572 0
DWIDTH 9 0
BBX 8 10 2 1
BITMAP
04
18
00
3f
42
04
18
20
42
fe
ENDCHAR
STARTCHAR hungarumlaut
ENCODING 189
SWIDTH 572 0
DWIDTH 9 0
BBX 5 2 5 9
BITMAP
50
a0
ENDCHAR
STARTCHAR zcaron
ENCODING 190
SWIDTH 572 0
DWIDTH 9 0
BBX 8 10 2 1
BITMAP
12
0c
00
3f
42
04
18
20
42
fe
ENDCHAR
STARTCHAR zdotaccent
ENCODING 191
SWIDTH 572 0
DWIDTH 9 0
BBX 8 11 2 1
BITMAP
08
08
00
00
3f
42
04
18
20
42
fe
ENDCHAR
STARTCHAR Racute
ENCODING 192
SWIDTH 572 0
DWIDTH 9 0
BBX 9 12 1 1
BITMAP
0100
0600
0000
7f00
2100
2100
2300
3c00
2400
2400
4200
e300
ENDCHAR
STARTCHAR Aacute
ENCODING 193
SWIDTH 572 0
DWIDTH 9 0
BBX 9 12 0 1
BITMAP
0100
0600
0000
1e00
0600
0a00
0a00
1200
1f00
2100
4100
e380
ENDCHAR
STARTCHAR Acircumflex
ENCODING 194
SWIDTH 572 0
DWIDTH 9 0
BBX 9 12 0 1
BITMAP
0300
0480
0000
1e00
0600
0a00
0a00
1200
1f00
2100
4100
e380
ENDCHAR
STARTCHAR Abreve
ENCODING 195
SWIDTH 572 0
DWIDTH 9 0
BBX 9 12 0 1
BITMAP
0880
0700
0000
1e00
0600
0a00
0a00
1200
1f00
2100
4100
e380
ENDCHAR
STARTCHAR Adieresis
ENCODING 196
SWIDTH 572 0
DWIDTH 9 0
BBX 9 13 0 1
BITMAP
0500
0500
0000
0000
1e00
0600
0a00
0a00
1200
1f00
2100
4100
e380
ENDCHAR
STARTCHAR Lacute
ENCODING 197
SWIDTH 572 0
DWIDTH 9 0
BBX 9 12 1 1
BITMAP
0800
3000
0000
3c00
1000
1000
1000
1000
2080
2080
2100
ff00
ENDCHAR
STARTCHAR Cacute
ENCODING 198
SWIDTH 572 0
DWIDTH 9 0
BBX 9 12 2 1
BITMAP
0200
0c00
0000
1e80
2100
4100
8000
8000
8000
8000
c300
7c00
ENDCHAR
STARTCHAR Ccedilla
ENCODING 199
SWIDTH 572 0
DWIDTH 9 0
BBX 9 11 2 -1
BITMAP
1e80
2180
4100
8000
8000
8000
8000
c300
7c00
1000
7800
ENDCHAR
STARTCHAR Ccaron
ENCODING 200
SWIDTH 572 0
DWIDTH 9 0
BBX 9 12 2 1
BITMAP
0900
0600
0000
1e80
2100
4100
8000
8000
8000
8000
c300
7c00
ENDCHAR
STARTCHAR Eacute
ENCODING 201
SWIDTH 572 0
DWIDTH 9 0
BBX 10 12 1 1
BITMAP
0100
0600
0000
3fc0
1040
10c0
1200
3e00
2200
2080
2180
ff00
ENDCHAR
STARTCHAR Eogonek
ENCODING 202
SWIDTH 572 0
DWIDTH 9 0
BBX 9 11 1 -1
BITMAP
3f80
1080
1080
2200
3c00
2200
2100
2100
ff00
0400
0400
ENDCHAR
STARTCHAR Edieresis
ENCODING 203
SWIDTH 572 0
DWIDTH 9 0
BBX 10 13 1 1
BITMAP
0500
0500
0000
0000
3fc0
1040
10c0
1200
3e00
2200
2080
2180
ff00
ENDCHAR
STARTCHAR Ecaron
ENCODING 204
SWIDTH 572 0
DWIDTH 9 0
BBX 10 12 1 1
BITMAP
0480
0300
0000
3fc0
1040
10c0
1200
3e00
2200
2080
2180
ff00
ENDCHAR
STARTCHAR Iacute
ENCODING 205
SWIDTH 572 0
DWIDTH 9 0
BBX 8 12 2 1
BITMAP
04
18
00
3f
08
08
08
08
10
10
10
fc
ENDCHAR
STARTCHAR Icircumflex
ENCODING 206
SWIDTH 572 0
DWIDTH 9 0
BBX 8 12 2 1
BITMAP
0c
12
00
3f
08
08
08
08
10
10
10
fc
ENDCHAR
STARTCHAR Dcaron
ENCODING 207
SWIDTH 572 0
DWIDTH 9 0
BBX 9 12 1 1
BITMAP
0900
0600
0000
7f00
2180
2080
2080
2080
2080
4100
4200
fc00
ENDCHAR
STARTCHAR Eth
ENCODING 208
SWIDTH 572 0
DWIDTH 9 0
BBX 9 9 1 1
BITMAP
7f00
2180
2080
2080
f880
2080
4100
4200
fc00
ENDCHAR
STARTCHAR Nacute
ENCODING 209
SWIDTH 572 0
DWIDTH 9 0
BBX 11 12 0 1
BITMAP
0080
0300
0000
39e0
1840
1440
2480
2480
2480
2280
2300
f300
ENDCHAR
STARTCHAR Ncaron
ENCODING 210
SWIDTH 572 0
DWIDTH 9 0
BBX 11 12 0 1
BITMAP
0240
0180
0000
39e0
1840
1440
2480
2480
2480
2280
2300
f300
ENDCHAR
STARTCHAR Oacute
ENCODING 211
SWIDTH 572 0
DWIDTH 9 0
BBX 9 12 1 1
BITMAP
0100
0600
0000
0f00
3180
4080
4080
8080
8080
8100
4200
3c00
ENDCHAR
STARTCHAR Ocircumflex
ENCODING 212
SWIDTH 572 0
DWIDTH 9 0
BBX 9 12 1 1
BITMAP
0300
0480
0000
0f00
3180
4080
4080
8080
8080
8100
4200
3c00
ENDCHAR
STARTCHAR Ohungarumlaut
ENCODING 213
SWIDTH 572 0
DWIDTH 9 0
BBX 9 12 1 1
BITMAP
0500
0a00
0000
0f00
3180
4080
4080
8080
8080
8100
4200
3c00
ENDCHAR
STARTCHAR Odieresis
ENCODING 214
SWIDTH 572 0
DWIDTH 9 0
BBX 9 13 1 1
BITMAP
0500
0500
0000
0000
0f00
3180
4080
4080
8080
8080
8100
4200
3c00
ENDCHAR
STARTCHAR multiply
ENCODING 215
SWIDTH 572 0
DWIDTH 9 0
BBX 6 6 3 3
BITMAP
84
4c
38
30
48
84
ENDCHAR
STARTCHAR Rcaron
ENCODING 216
SWIDTH 572 0
DWIDTH 9 0
BBX 8 12 1 1
BITMAP
09
06
00
7f
21
21
23
3c
24
24
42
e3
ENDCHAR
STARTCHAR Uring
ENCODING 217
SWIDTH 572 0
DWIDTH 9 0
BBX 9 13 2 1
BITMAP
0400
0a00
0e00
0000
f380
4100
4100
4100
8200
8200
8200
8400
7800
ENDCHAR
STARTCHAR Uacute
ENCODING 218
SWIDTH 572 0
DWIDTH 9 0
BBX 9 12 2 1
BITMAP
0200
0c00
0000
f380
4100
4100
4100
8200
8200
8200
8400
7800
ENDCHAR
STARTCHAR Uhungarumlaut
ENCODING 219
SWIDTH 572 0
DWIDTH 9 0
BBX 9 12 2 1
BITMAP
0a00
1400
0000
f380
4100
4100
4100
8200
8200
8200
8400
7800
ENDCHAR
STARTCHAR Udieresis
ENCODING 220
SWIDTH 572 0
DWIDTH 9 0
BBX 9 13 2 1
BITMAP
0a00
0a00
0000
0000
f380
4100
4100
4100
8200
8200
8200
8400
7800
ENDCHAR
STARTCHAR Yacute
ENCODING 221
SWIDTH 572 0
DWIDTH 9 0
BBX 9 12 2 1
BITMAP
0200
0c00
0000
e380
4200
2200
2400
2800
1000
1000
2000
f800
ENDCHAR
STARTCHAR Tcedilla
ENCODING 222
SWIDTH 572 0
DWIDTH 9 0
BBX 9 11 2 -1
BITMAP
7f00
8900
8900
0800
1000
1000
1000
1000
7800
3000
7000
ENDCHAR
STARTCHAR germandbls
ENCODING 223
SWIDTH 572 0
DWIDTH 9 0
BBX 8 10 1 1
BITMAP
0e
11
11
22
2c
22
21
41
42
dc
ENDCHAR
STARTCHAR racute
ENCODING 224
SWIDTH 572 0
DWIDTH 9 0
BBX 9 10 1 1
BITMAP
0200
0c00
0000
7700
1880
1000
1000
1000
2000
fc00
ENDCHAR
STARTCHAR aacute
ENCODING 225
SWIDTH 572 0
DWIDTH 9 0
BBX 8 10 1 1
BITMAP
02
0c
00
1e
01
3f
42
82
86
7b
ENDCHAR
STARTCHAR acircumflex
ENCODING 226
SWIDTH 572 0
DWIDTH 9 0
BBX 8 10 1 1
BITMAP
06
09
00
1e
01
3f
42
82
86
7b
ENDCHAR
STARTCHAR abreve
ENCODING 227
SWIDTH 572 0
DWIDTH 9 0
BBX 8 10 1 1
BITMAP
11
0e
00
1e
01
3f
42
82
86
7b
ENDCHAR
STARTCHAR adieresis
ENCODING 228
SWIDTH 572 0
DWIDTH 9 0
BBX 8 11 1 1
BITMAP
0a
0a
00
00
1e
01
3f
42
82
86
7b
ENDCHAR
STARTCHAR lacute
ENCODING 229
SWIDTH 572 0
DWIDTH 9 0
BBX 8 13 1 1
BITMAP
02
0c
00
3c
04
04
08
08
08
08
18
10
fe
ENDCHAR
STARTCHAR cacute
ENCODING 230
SWIDTH 572 0
DWIDTH 9 0
BBX 8 10 2 1
BITMAP
04
18
00
3d
42
82
80
80
86
78
ENDCHAR
STARTCHAR ccedilla
ENCODING 231
SWIDTH 572 0
DWIDTH 9 0
BBX 8 9 2 -1
BITMAP
3f
42
82
80
80
86
78
20
70
ENDCHAR
STARTCHAR ccaron
ENCODING 232
SWIDTH 572 0
DWIDTH 9 0
BBX 8 10 2 1
BITMAP
12
0c
00
3d
42
82
80
80
86
78
ENDCHAR
STARTCHAR eacute
ENCODING 233
SWIDTH 572 0
DWIDTH 9 0
BBX 8 10 2 1
BITMAP
04
18
00
3c
43
81
ff
80
83
7c
ENDCHAR
STARTCHAR eogonek
ENCODING 234
SWIDTH 572 0
DWIDTH 9 0
BBX 8 9 2 -1
BITMAP
3c
43
81
ff
80
83
7c
20
30
ENDCHAR
STARTCHAR edieresis
ENCODING 235
SWIDTH 572 0
DWIDTH 9 0
BBX 8 11 2 1
BITMAP
14
14
00
00
3c
43
81
ff
80
83
7c
ENDCHAR
STARTCHAR ecaron
ENCODING 236
SWIDTH 572 0
DWIDTH 9 0
BBX 8 10 2 1
BITMAP
12
0c
00
3c
43
81
ff
80
83
7c
ENDCHAR
STARTCHAR iacute
ENCODING 237
SWIDTH 572 0
DWIDTH 9 0
BBX 8 10 1 1
BITMAP
02
0c
00
38
08
08
08
18
10
fe
ENDCHAR
STARTCHAR icircumflex
ENCODING 238
SWIDTH 572 0
DWIDTH 9 0
BBX 7 10 1 1
BITMAP
0c
12
00
38
08
08
08
18
10
fe
ENDCHAR
STARTCHAR dcaron
ENCODING 239
SWIDTH 572 0
DWIDTH 9 0
BBX 13 10 1 1
BITMAP
0010
00e0
0080
1d00
6300
4100
8100
8200
c600
3b00
ENDCHAR
STARTCHAR dbar
ENCODING 240
SWIDTH 572 0
DWIDTH 9 0
BBX 10 9 1 1
BITMAP
0080
0fc0
1d00
6300
4100
8100
8200
c600
3b00
ENDCHAR
STARTCHAR nacute
ENCODING 241
SWIDTH 572 0
DWIDTH 9 0
BBX 8 10 1 1
BITMAP
02
0c
00
6e
31
21
21
42
42
e7
ENDCHAR
STARTCHAR ncaron
ENCODING 242
SWIDTH 572 0
DWIDTH 9 0
BBX 8 10 1 1
BITMAP
09
06
00
6e
31
21
21
42
42
e7
ENDCHAR
STARTCHAR oacute
ENCODING 243
SWIDTH 572 0
DWIDTH 9 0
BBX 9 10 1 1
BITMAP
0200
0c00
0000
1f00
6180
4080
8080
8100
c300
7c00
ENDCHAR
STARTCHAR ocircumflex
ENCODING 244
SWIDTH 572 0
DWIDTH 9 0
BBX 9 10 1 1
BITMAP
0600
0900
0000
1f00
6180
4080
8080
8100
c300
7c00
ENDCHAR
STARTCHAR ohungarumlaut
ENCODING 245
SWIDTH 572 0
DWIDTH 9 0
BBX 9 10 1 1
BITMAP
0500
0a00
0000
1f00
6180
4080
8080
8100
c300
7c00
ENDCHAR
STARTCHAR odieresis
ENCODING 246
SWIDTH 572 0
DWIDTH 9 0
BBX 9 11 1 1
BITMAP
0a00
0a00
0000
0000
1f00
6180
4080
8080
8100
c300
7c00
ENDCHAR
STARTCHAR divide
ENCODING 247
SWIDTH 572 0
DWIDTH 9 0
BBX 8 7 2 2
BITMAP
10
00
00
ff
00
00
10
ENDCHAR
STARTCHAR rcaron
ENCODING 248
SWIDTH 572 0
DWIDTH 9 0
BBX 9 10 1 1
BITMAP
0900
0600
0000
7700
1880
1000
1000
1000
2000
fc00
ENDCHAR
STARTCHAR uring
ENCODING 249
SWIDTH 572 0
DWIDTH 9 0
BBX 7 10 2 1
BITMAP
1c
1c
00
c6
42
42
82
84
8c
76
ENDCHAR
STARTCHAR uacute
ENCODING 250
SWIDTH 572 0
DWIDTH 9 0
BBX 7 10 2 1
BITMAP
04
18
00
c6
42
42
82
84
8c
76
ENDCHAR
STARTCHAR uhungarumlaut
ENCODING 251
SWIDTH 572 0
DWIDTH 9 0
BBX 8 10 2 1
BITMAP
0a
14
00
c6
42
42
82
84
8c
76
ENDCHAR
STARTCHAR udieresis
ENCODING 252
SWIDTH 572 0
DWIDTH 9 0
BBX 7 11 2 1
BITMAP
14
14
00
00
c6
42
42
82
84
8c
76
ENDCHAR
STARTCHAR yacute
ENCODING 253
SWIDTH 572 0
DWIDTH 9 0
BBX 8 13 2 -2
BITMAP
04
18
00
e7
42
c2
82
84
8c
74
04
08
f0
ENDCHAR
STARTCHAR tcedilla
ENCODING 254
SWIDTH 572 0
DWIDTH 9 0
BBX 6 11 3 -1
BITMAP
40
40
f8
40
40
80
80
80
78
30
f0
ENDCHAR
STARTCHAR dotaccent
ENCODING 255
SWIDTH 572 0
DWIDTH 9 0
BBX 1 2 6 10
BITMAP
80
80
ENDCHAR
ENDFONT
